<?xml version="1.0" encoding="UTF-8" standalone="no"?><svg width="169" height="36" fill="none" xmlns="http://www.w3.org/2000/svg"><path d="M156.254 25.623V15.52l-8.758-14.033h4.138l4.068 6.792c1.035 1.725 1.564 3.506 1.587 5.345h1.448c.023-1.839.528-3.632 1.517-5.379l3.827-6.758h4.103l-8.482 13.896v10.24h-3.448zm-20.716 0V1.487h3.448v20.895h12.999v3.241h-16.447zm-22.427 0V1.487h10.31c2.391 0 4.287.62 5.689 1.862 1.403 1.218 2.104 2.781 2.104 4.69 0 1.861-.598 3.217-1.793 4.068-1.173.827-2.644 1.299-4.414 1.414v1.448c1.724.023 2.977.379 3.759 1.069.804.666 1.379 1.839 1.724 3.517l1.172 6.068h-3.759l-.999-5.758c-.23-1.517-.771-2.598-1.621-3.241-.828-.644-2.069-.966-3.724-.966h-5v9.965h-3.448zm3.448-13.068h6.345c1.471 0 2.62-.333 3.448-1 .827-.69 1.241-1.678 1.241-2.965s-.414-2.264-1.241-2.931c-.828-.667-1.977-1-3.448-1h-6.345v7.896zM92.3 25.623V1.487h17.068v3.172h-13.62v6.896h10.103v3.138H95.748v7.758h13.62v3.172H92.3zm-23.976 0V1.487h8.482c3.448 0 6.241 1.103 8.38 3.31 2.16 2.207 3.24 5.092 3.24 8.655 0 3.77-1.069 6.746-3.206 8.93-2.115 2.16-4.989 3.241-8.62 3.241h-8.276zm3.448-3.172h4.31c5.816 0 8.724-2.988 8.724-8.965 0-2.758-.724-4.92-2.172-6.482-1.448-1.563-3.552-2.345-6.31-2.345h-4.552v17.792zm-25.875 3.172V1.487h10.31c2.39 0 4.286.62 5.688 1.862C63.298 4.567 64 6.13 64 8.039c0 1.861-.598 3.217-1.793 4.068-1.173.827-2.644 1.299-4.414 1.414v1.448c1.724.023 2.977.379 3.759 1.069.804.666 1.379 1.839 1.724 3.517l1.172 6.068H60.69l-1-5.758c-.23-1.517-.77-2.598-1.62-3.241-.828-.644-2.07-.966-3.725-.966h-5v9.965h-3.447zm3.447-13.068h6.345c1.471 0 2.62-.333 3.448-1 .828-.69 1.241-1.678 1.241-2.965s-.413-2.264-1.241-2.931c-.828-.667-1.977-1-3.448-1h-6.345v7.896z" fill="color(display-p3 .1331 .1326 .1569)"/><path d="M45.536 36c-3.676-4.516-9.176-7.385-15.323-7.385S18.565 31.484 14.89 36h3.63c3.09-2.87 7.18-4.616 11.665-4.616 4.485 0 8.575 1.747 11.665 4.616h3.686zM31.02 26.303c-5.828 0-10.804-4.95-7.573-13.072l2.308 2.107c-1.38 4.586.989 7.724 5.092 7.827 4.172.104 6.827-4.275 7.655-8.413 1.034-5.138.758-10.551-4.38-11.482-2.895-.517-6.102.483-6.93 3.413-1.345 4.724 3.724 6.517 8.758 6.172l.07 3.104c-7.276.551-13.862-3.207-11.862-10.103 1.207-4.207 5.379-6.517 10.413-5.69 7.138 1.207 8.379 8.07 7 15.172-1.138 6-5.138 10.965-10.551 10.965z" fill="color(display-p3 .749 .7216 1)"/><path d="M0 25.623V1.487h10.585c2.414 0 4.265.529 5.552 1.586 1.31 1.057 1.965 2.425 1.965 4.103 0 1.54-.47 2.747-1.413 3.62-.943.851-2.196 1.334-3.759 1.449v1.414c1.724.068 3.15.574 4.276 1.517 1.126.942 1.69 2.264 1.69 3.965 0 2.069-.748 3.666-2.242 4.793-1.471 1.126-3.379 1.69-5.724 1.69H0zm3.448-14.068h6.724c1.31 0 2.356-.322 3.137-.965.805-.644 1.207-1.517 1.207-2.62 0-1.081-.379-1.897-1.137-2.449-.76-.575-1.828-.862-3.207-.862H3.448v6.896zm0 10.896h7c1.47 0 2.632-.356 3.482-1.069.874-.713 1.31-1.667 1.31-2.862 0-1.218-.425-2.16-1.275-2.827-.85-.69-2.023-1.035-3.517-1.035h-7v7.793z" fill="color(display-p3 .1331 .1326 .1569)"/></svg>