<?xml version="1.0" encoding="utf-8"?>
<!-- Generator: Adobe Illustrator 26.2.1, SVG Export Plug-In . SVG Version: 6.00 Build 0)  -->
<svg version="1.1" id="Layer_1" xmlns="http://www.w3.org/2000/svg" xmlns:xlink="http://www.w3.org/1999/xlink" x="0px" y="0px"
	 viewBox="0 0 1920 505" style="enable-background:new 0 0 1920 505;" xml:space="preserve">
<style type="text/css">
	.st0{fill:#FFFFFF;}
</style>
<g>
	<g>
		<path d="M1366.3,65.8v373.4c0,3.8-3.1,6.9-6.9,6.9h-41.5c-3.8,0-6.9-3.1-6.9-6.9V65.8c0-3.8,3.1-6.9,6.9-6.9h41.5
			C1363.2,58.9,1366.3,62,1366.3,65.8z"/>
		<path d="M1855,224.9h-112.4c0,0-6.9,0-6.9,6.9v207.5c0,3.8-3.1,6.9-6.9,6.9h-41.5c-3.8,0-6.9-3.1-6.9-6.9V238.7
			c0-6.9,0-13.8,6.9-20.7l41.5-41.5c6.9-6.9,13.8-6.9,20.7-6.9h98.6c6.9,0,13.8,0,20.7,6.9l41.5,41.5c6.9,6.9,6.9,13.8,6.9,20.7
			v200.5c0,3.8-3.1,6.9-6.9,6.9h-41.5c-3.8,0-6.9-3.1-6.9-6.9V231.8C1861.9,224.9,1855,224.9,1855,224.9z"/>
		<path d="M1404.8,238.7c0-6.9,0-13.8,6.9-20.7l41.5-41.5c6.9-6.9,13.8-6.9,20.7-6.9h98.6c6.9,0,13.8,0,20.7,6.9l41.5,41.5
			c6.9,6.9,6.9,13.8,6.9,20.7V377c0,6.9,0,13.8-6.9,20.7l-41.5,41.5c-6.9,6.9-13.8,6.9-20.7,6.9H1474c-6.9,0-13.8,0-20.7-6.9
			l-41.5-41.5c-6.9-6.9-6.9-13.8-6.9-20.7V238.7z M1467.1,390.8h112.4c0,0,6.9,0,6.9-6.9V231.8c0-6.9-6.9-6.9-6.9-6.9h-112.4
			c0,0-6.9,0-6.9,6.9v152.1C1460.2,390.8,1467.1,390.8,1467.1,390.8z"/>
		<path d="M1296.9,405l-35.2-35.2v-5.2v-24.4V238.7c0-6.9,0-13.8-6.9-20.7l-41.5-41.5c-6.9-6.9-13.8-6.9-20.7-6.9h-98.6
			c-6.9,0-13.8,0-20.7,6.9l-41.5,41.5c-6.9,6.9-6.9,13.8-6.9,20.7v9.7c0,3.8,3.1,6.9,6.9,6.9h41.5c3.8,0,6.9-3.1,6.9-6.9v-16.6
			c0-6.9,6.9-6.9,6.9-6.9h112.4c0,0,6.9,0,6.9,6.9v41.3c-4.6-2-9.2-2.1-13.8-2.1h-98.6c-6.9,0-13.8,0-20.7,6.9l-41.5,41.5
			c-6.9,6.9-6.9,13.8-6.9,20.7V377c0,6.9,0,13.8,6.9,20.7l41.5,41.5c6.9,6.9,13.8,6.9,20.7,6.9h98.6c6.9,0,13.8,0,20.7-6.9
			l19.8-19.8l24.7,24.7c2.7,2.7,7.1,2.7,9.8,0l29.4-29.4C1299.6,412.1,1299.6,407.7,1296.9,405z M1206.3,364.6v19.3
			c0,6.9-6.9,6.9-6.9,6.9H1087c0,0-6.9,0-6.9-6.9v-50.6c0-6.9,6.9-6.9,6.9-6.9h112.4c0,0,6.9,0,6.9,6.9V364.6z"/>
		<path d="M982.7,217.9l-41.5-41.5c-6.9-6.9-13.8-6.9-20.7-6.9h-64.1c-6.9,0-13.8,0-20.7,6.9L808,204V65.8c0-3.8-3.1-6.9-6.9-6.9
			h-41.5c-3.8,0-6.9,3.1-6.9,6.9v373.4c0,3.8,3.1,6.9,6.9,6.9h41.5c3.8,0,6.9-3.1,6.9-6.9V231.8c0-6.1,5.4-6.8,6.7-6.9h112.7
			c0,0,6.9,0,6.9,6.9v207.5c0,3.8,3.1,6.9,6.9,6.9h41.5c3.8,0,6.9-3.1,6.9-6.9V238.7C989.6,231.8,989.6,224.9,982.7,217.9z"/>
	</g>
	<path d="M507.8,232.2c-10.7,0-21.1,1.2-31,3.5c-20.7,4.8-40.7-10.1-41.6-31.3c-0.4-9.8-1.1-18.3-1.9-22.9
		C414.8,80,325.7,3.1,218.7,3.6C98.7,4.2,2.5,101.1,2.8,221c0.3,119.6,97.3,216.5,217,216.5c42.4,0,81.9-12.2,115.4-33.2
		c17.3-10.9,40.5-3.7,48.6,15.2c20.6,48.4,68.7,82.2,124.6,81.9c74.6-0.4,135-62.2,133.8-136.8C641,291.3,581.5,232.4,507.8,232.2z"
		/>
</g>
</svg>
