<?xml version="1.0" encoding="UTF-8" standalone="no"?><svg width="41" height="41" viewBox="0 0 41 41" fill="none" xmlns="http://www.w3.org/2000/svg">
<mask id="mask0_500_37450" style="mask-type:luminance" maskUnits="userSpaceOnUse" x="0" y="0" width="41" height="41">
<path d="M0.210938 0.223633H40.2109V40.2236H0.210938V0.223633Z" fill="white"/>
</mask>
<g mask="url(#mask0_500_37450)">
<path d="M17.587 2.71311C17.7737 5.29997 18.3585 8.9714 20.2103 8.9714C22.0621 8.9714 22.6468 5.29194 22.8337 2.71311C22.9311 1.36344 21.859 0.222656 20.4945 0.222656H19.9341C18.5697 0.222656 17.4975 1.36344 17.587 2.71311Z" fill="#342E35"/>
<path d="M17.587 2.71237C17.7739 5.29924 18.3667 8.97065 20.2104 8.97065C22.054 8.97065 22.6469 5.2912 22.8337 2.70434C22.9312 1.3627 21.851 0.213867 20.4946 0.213867H19.9343C18.5617 0.22191 17.4896 1.3627 17.587 2.71237Z" fill="#171717"/>
<path d="M23.8367 2.8668C23.1138 5.35727 22.3991 9.01262 24.1372 9.63926C25.8752 10.2659 27.6946 7.00419 28.7666 4.64226C29.3189 3.4131 28.7098 1.97506 27.4265 1.51714L26.8986 1.32433C25.6154 0.866402 24.2102 1.57337 23.8367 2.8668Z" fill="#171717"/>
<path d="M29.6057 5.1135C28.0707 7.2103 26.1296 10.3997 27.5509 11.5807C28.9722 12.7615 31.8067 10.3113 33.626 8.4475C34.5763 7.47542 34.495 5.91687 33.4473 5.05726L33.0169 4.70377C31.9773 3.8281 30.4098 4.0209 29.6057 5.1135Z" fill="#171717"/>
<path d="M34.2452 9.17776C32.0767 10.6319 29.1528 12.9697 30.0787 14.5524C31.0046 16.135 34.5132 14.8014 36.8685 13.6687C38.0949 13.0821 38.5579 11.5879 37.8757 10.423L37.5914 9.94096C36.9173 8.76803 35.3741 8.42258 34.2452 9.17776Z" fill="#171717"/>
<path d="M37.1921 14.5866C34.6499 15.2213 31.0926 16.4263 31.4175 18.2339C31.7423 20.0414 35.5027 19.9692 38.1098 19.696C39.4662 19.5595 40.4164 18.3062 40.1809 16.9806L40.0834 16.4343C39.8398 15.1087 38.5159 14.2572 37.1921 14.5866Z" fill="#171717"/>
<path d="M38.1101 20.7313C35.503 20.4661 31.7426 20.402 31.4177 22.2016C31.1009 24.001 34.6583 25.2141 37.2004 25.8409C38.5243 26.1701 39.8481 25.3186 40.0837 23.993L40.1811 23.4467C40.4167 22.1211 39.4583 20.876 38.1101 20.7313Z" fill="#171717"/>
<path d="M36.8757 26.7671C34.5203 25.6342 31.0036 24.3007 30.0858 25.8834C29.1681 27.466 32.0838 29.8038 34.2604 31.258C35.3894 32.0131 36.9244 31.6595 37.6066 30.4947L37.8909 30.0127C38.565 28.8478 38.1021 27.3535 36.8757 26.7671Z" fill="#171717"/>
<path d="M33.6349 31.987C31.8075 30.1231 28.973 27.6809 27.5598 28.8619C26.1466 30.0347 28.0877 33.2241 29.6228 35.321C30.4187 36.4136 31.9862 36.6064 33.0339 35.7387L33.4644 35.3853C34.504 34.5176 34.5852 32.959 33.6349 31.987Z" fill="#171717"/>
<path d="M28.7763 35.7934C27.7042 33.4234 25.8849 30.1698 24.1468 30.7964C22.4088 31.4231 23.1316 35.0784 23.8545 37.5688C24.2281 38.8622 25.6331 39.5772 26.9164 39.1114L27.4443 38.9185C28.7194 38.4607 29.3286 37.0225 28.7763 35.7934Z" fill="#171717"/>
<path d="M22.8376 37.7318C22.6509 35.1449 22.058 31.4736 20.2143 31.4736C18.3706 31.4736 17.7777 35.1531 17.591 37.7399C17.4934 39.0815 18.5737 40.2303 19.93 40.2303H20.4904C21.863 40.2223 22.9352 39.0815 22.8376 37.7318Z" fill="#171717"/>
<path d="M16.5863 37.5785C17.309 35.088 18.0239 31.4327 16.2858 30.806C14.5478 30.1794 12.7285 33.4411 11.6563 35.803C11.104 37.0321 11.7132 38.4703 12.9965 38.9281L13.5243 39.121C14.8076 39.5788 16.2126 38.872 16.5863 37.5785Z" fill="#171717"/>
<path d="M10.8138 35.3292C12.3488 33.2325 14.29 30.0431 12.8687 28.8621C11.4554 27.6892 8.61285 30.1314 6.79356 31.9952C5.84328 32.9674 5.92456 34.526 6.97227 35.3855L7.4027 35.739C8.45042 36.6147 10.018 36.4218 10.8138 35.3292Z" fill="#171717"/>
<path d="M6.17498 31.2638C8.34355 29.8096 11.2674 27.4719 10.3416 25.8892C9.41556 24.3065 5.90698 25.6402 3.5517 26.7729C2.32527 27.3594 1.86227 28.8536 2.54455 30.0185L2.82884 30.5006C3.51098 31.6735 5.05412 32.0189 6.17498 31.2638Z" fill="#171717"/>
<path d="M3.22405 25.8573C5.7662 25.2225 9.32363 24.0175 8.99877 22.21C8.67391 20.4024 4.91348 20.4747 2.30634 20.7478C0.950056 20.8844 -0.000231668 22.1377 0.23534 23.4633L0.33277 24.0095C0.584484 25.3351 1.90834 26.1867 3.22405 25.8573Z" fill="#171717"/>
<path d="M2.31615 19.7127C4.92329 19.9779 8.68372 20.042 9.00858 18.2424C9.33344 16.443 5.76787 15.2299 3.22587 14.6031C1.90201 14.2739 0.578151 15.1254 0.34258 16.451L0.245152 16.9973C0.00958103 18.3229 0.959866 19.568 2.31615 19.7127Z" fill="#171717"/>
<path d="M3.55021 13.6793C5.9055 14.8121 9.42236 16.1457 10.3401 14.563C11.2578 12.9804 8.34207 10.6426 6.1655 9.18846C5.0365 8.43329 3.5015 8.78678 2.81921 9.95168L2.53493 10.4337C1.86093 11.5986 2.32379 13.0929 3.55021 13.6793Z" fill="#171717"/>
<path d="M6.78249 8.45589C8.60992 10.3197 11.4445 12.7619 12.8576 11.581C14.2709 10.4081 12.3298 7.21869 10.7948 5.12188C9.99877 4.02929 8.4312 3.83647 7.38349 4.70412L6.95306 5.0576C5.92163 5.92526 5.84034 7.4838 6.78249 8.45589Z" fill="#171717"/>
<path d="M11.6501 4.64834C12.7221 7.0183 14.5414 10.272 16.2796 9.64533C18.0176 9.0187 17.2949 5.36334 16.572 2.87289C16.1983 1.57946 14.7933 0.864442 13.51 1.3304L12.9821 1.52321C11.707 1.98114 11.0897 3.41917 11.6501 4.64834Z" fill="#171717"/>
<path d="M20.1278 8.01414C20.1278 8.01414 22.0771 4.23828 20.1278 4.23828C18.1786 4.23828 20.1278 8.01414 20.1278 8.01414Z" fill="#171717"/>
<path d="M24.3507 8.72147C24.3507 8.72147 27.4858 5.82933 25.6584 5.17056C23.831 4.51179 24.3507 8.72147 24.3507 8.72147Z" fill="#171717"/>
<path d="M28.0726 10.8109C28.0726 10.8109 32.0198 9.15597 30.5254 7.91879C29.031 6.68159 28.0726 10.8109 28.0726 10.8109Z" fill="#171717"/>
<path d="M30.8411 14.0385C30.8411 14.0385 35.1213 13.8215 34.1467 12.1505C33.1721 10.4794 30.8411 14.0385 30.8411 14.0385Z" fill="#171717"/>
<path d="M32.3347 18.0081C32.3347 18.0081 36.4362 19.2532 36.0951 17.3492C35.7539 15.4452 32.3347 18.0081 32.3347 18.0081Z" fill="#171717"/>
<path d="M32.3581 22.2437C32.3581 22.2437 35.7774 24.7984 36.1185 22.9024C36.4596 20.9984 32.3581 22.2437 32.3581 22.2437Z" fill="#171717"/>
<path d="M30.9212 26.2256C30.9212 26.2256 33.2521 29.7846 34.2268 28.1136C35.2014 26.4426 30.9212 26.2256 30.9212 26.2256Z" fill="#171717"/>
<path d="M28.1937 29.4893C28.1937 29.4893 29.1521 33.6185 30.6465 32.3814C32.1409 31.1443 28.1937 29.4893 28.1937 29.4893Z" fill="#171717"/>
<path d="M24.505 31.6338C24.505 31.6338 23.9772 35.8434 25.8127 35.1846C27.6401 34.5178 24.505 31.6338 24.505 31.6338Z" fill="#171717"/>
<path d="M20.2899 32.3975C20.2899 32.3975 18.3406 36.1733 20.2899 36.1733C22.2392 36.1733 20.2899 32.3975 20.2899 32.3975Z" fill="#171717"/>
<path d="M16.0762 31.6807C16.0762 31.6807 12.9412 34.5728 14.7686 35.2317C16.596 35.8904 16.0762 31.6807 16.0762 31.6807Z" fill="#171717"/>
<path d="M12.3555 29.5928C12.3555 29.5928 8.40833 31.2478 9.90261 32.4849C11.389 33.7221 12.3555 29.5928 12.3555 29.5928Z" fill="#171717"/>
<path d="M9.57812 26.3633C9.57812 26.3633 5.29784 26.5801 6.27255 28.2511C7.24713 29.9223 9.57812 26.3633 9.57812 26.3633Z" fill="#171717"/>
<path d="M8.09375 22.3951C8.09375 22.3951 3.99232 21.1498 4.33346 23.0538C4.66646 24.9498 8.09375 22.3951 8.09375 22.3951Z" fill="#171717"/>
<path d="M8.06055 18.1637C8.06055 18.1637 4.64126 15.609 4.30012 17.505C3.96712 19.409 8.06055 18.1637 8.06055 18.1637Z" fill="#171717"/>
<path d="M9.49609 14.1771C9.49609 14.1771 7.16524 10.6181 6.19052 12.2891C5.21595 13.9601 9.49609 14.1771 9.49609 14.1771Z" fill="#171717"/>
<path d="M12.2246 10.9154C12.2246 10.9154 11.2662 6.78608 9.77175 8.02328C8.27732 9.26047 12.2246 10.9154 12.2246 10.9154Z" fill="#171717"/>
<path d="M15.9218 8.7703C15.9218 8.7703 16.4498 4.56062 14.6142 5.21939C12.7868 5.88619 15.9218 8.7703 15.9218 8.7703Z" fill="#171717"/>
</g>
</svg>
