<?xml version="1.0" encoding="UTF-8"?> <svg xmlns="http://www.w3.org/2000/svg" width="143" height="32" viewBox="0 0 143 32" fill="none"><path d="M38.1641 25.9195C36.6599 25.9195 35.3123 25.6768 34.1212 25.1963C32.9302 24.711 31.9859 23.9925 31.2931 23.0362C30.6003 22.0799 30.2539 20.8952 30.2539 19.4773V18.7589H35.7963V19.3679C35.7963 20.0102 35.9956 20.5478 36.3942 20.9808C36.7928 21.4138 37.4001 21.6279 38.2163 21.6279C39.0325 21.6279 39.6256 21.5089 40.0812 21.2758C40.5367 21.0427 40.7597 20.6573 40.7597 20.1244C40.7597 19.7295 40.5462 19.3631 40.1191 19.0206C39.6921 18.6828 39.1179 18.3592 38.4014 18.0547C37.6801 17.7502 36.8829 17.46 36.0003 17.184C35.0465 16.8795 34.1402 16.4704 33.2813 15.9565C32.4224 15.4427 31.7249 14.7718 31.1839 13.9487C30.643 13.1256 30.3725 12.1026 30.3725 10.8799C30.3725 9.6571 30.7189 8.54376 31.4165 7.64452C32.114 6.75004 33.0488 6.06015 34.2304 5.58437C35.4072 5.10858 36.7168 4.86593 38.1594 4.86593C39.6019 4.86593 40.9923 5.09907 42.1691 5.57009C43.3459 6.04112 44.2807 6.73101 44.9687 7.63976C45.6568 8.54851 45.9984 9.67613 45.9984 11.0178V11.7077H40.4561V11.2795C40.4561 10.68 40.29 10.1757 39.9531 9.76177C39.6161 9.34783 39.042 9.14325 38.2258 9.14325C37.4096 9.14325 36.7975 9.29074 36.3609 9.58573C35.9244 9.88071 35.7061 10.3089 35.7061 10.8703C35.7061 11.2653 35.8912 11.6126 36.2565 11.9123C36.6219 12.2121 37.1297 12.488 37.775 12.7449C38.4204 13.0019 39.1511 13.2778 39.9673 13.5728C41.1963 14.0058 42.2735 14.4816 43.1988 15.0002C44.1241 15.5188 44.8454 16.1706 45.3673 16.9509C45.8846 17.7312 46.1455 18.7351 46.1455 19.9579C46.1455 21.1806 45.7991 22.3178 45.1158 23.2075C44.4325 24.0972 43.4787 24.7681 42.2735 25.2296C41.0682 25.6911 39.6921 25.9195 38.1546 25.9195H38.1641Z" fill="#020810"></path><path d="M56.4758 25.9195C55.8447 25.9195 55.1757 25.8719 54.4734 25.7767C53.7711 25.6816 53.1115 25.4817 52.4994 25.1772C51.8825 24.8727 51.3842 24.416 50.9999 23.807C50.6155 23.1932 50.421 22.3749 50.421 21.3424V15.0525H47.161V10.9132H47.2274C47.944 10.9132 48.5134 10.8799 48.9405 10.818C49.3675 10.7514 49.6855 10.5992 49.899 10.347C50.1078 10.0996 50.2501 9.70943 50.3166 9.17655C50.3877 8.64367 50.421 7.9062 50.421 6.9689V6.11249H55.9776V10.9132H60.011V15.0525H55.9776V19.9055C55.9776 20.4384 56.044 20.8904 56.1721 21.2568C56.3003 21.6231 56.6467 21.8087 57.2018 21.8087C57.534 21.8087 57.8424 21.7754 58.1367 21.7135C58.4309 21.6517 58.6491 21.5851 58.7962 21.5184V25.5341C58.5874 25.6245 58.279 25.7149 57.8804 25.7958C57.4818 25.8766 57.012 25.9195 56.4711 25.9195H56.4758Z" fill="#020810"></path><path d="M77.4971 25.0583C77.331 24.8109 77.1981 24.5206 77.0985 24.1781C77.0083 23.8593 76.9514 23.5072 76.9324 23.1314C76.9134 22.7555 76.9039 22.3653 76.9039 21.9609V16.261C76.9039 14.9669 76.5385 13.9011 75.803 13.0685C75.0723 12.2359 74.1137 11.6173 72.9369 11.2129C71.7601 10.8085 70.4931 10.6087 69.1455 10.6087C67.7267 10.6087 66.436 10.8228 65.2734 11.2462C64.1156 11.6744 63.1903 12.3072 62.5022 13.1446C61.8142 13.982 61.4678 15.0144 61.4678 16.2467H66.9295C66.9295 15.7329 67.1098 15.3427 67.4657 15.0715C67.8263 14.8003 68.372 14.6624 69.1076 14.6624C69.7814 14.6624 70.3271 14.7861 70.7351 15.0287C71.1432 15.2714 71.3473 15.5616 71.3473 15.9042V15.9184C71.3473 16.1754 71.091 16.3562 70.5786 16.4561C70.0613 16.556 69.0696 16.6749 67.5938 16.8129C66.5546 16.9081 65.5534 17.1222 64.5854 17.4647C63.6174 17.8025 62.8249 18.3021 62.208 18.9682C61.5864 19.6296 61.278 20.5003 61.278 21.585C61.278 22.5081 61.5152 23.2836 61.9945 23.9259C62.469 24.5635 63.1191 25.0535 63.9448 25.3866C64.7704 25.7244 65.7052 25.8909 66.7539 25.8909C67.6081 25.8909 68.429 25.7624 69.2214 25.5103C70.0139 25.2581 70.7067 24.8918 71.2998 24.416C71.4279 24.3113 71.5466 24.2066 71.6557 24.0924C71.6747 24.1733 71.7032 24.259 71.7316 24.3446C71.836 24.6301 71.9642 24.8822 72.116 25.1059C72.2726 25.3247 72.3912 25.477 72.4766 25.5579H77.8957C77.796 25.4675 77.6631 25.3009 77.4971 25.0583ZM70.9772 20.5716C70.664 21.0664 70.2749 21.4185 69.8146 21.6279C69.3496 21.842 68.8798 21.9466 68.4053 21.9466C67.907 21.9466 67.5227 21.8705 67.2474 21.723C66.9722 21.5755 66.8346 21.3472 66.8346 21.0331C66.8346 20.7191 66.9912 20.4955 67.2949 20.3528C67.6033 20.21 68.0731 20.1054 68.7042 20.0435C69.3828 19.9674 70.0946 19.8627 70.8395 19.72C71.0104 19.6867 71.1765 19.6534 71.3425 19.6153C71.2666 19.9864 71.1432 20.3052 70.9772 20.5716Z" fill="#020810"></path><path d="M87.0302 25.9195C85.2792 25.9195 83.7749 25.5817 82.5175 24.9108C81.26 24.2399 80.2967 23.3217 79.6276 22.1512C78.9586 20.9856 78.6217 19.6534 78.6217 18.1641C78.6217 16.6749 78.9586 15.3523 79.6276 14.2199C80.2967 13.0875 81.26 12.2025 82.5175 11.565C83.7749 10.9274 85.2792 10.6087 87.0302 10.6087C88.3208 10.6087 89.4597 10.7942 90.442 11.1606C91.4242 11.5269 92.2404 12.0122 92.9 12.6165C93.5548 13.2207 94.0483 13.8773 94.3852 14.5958C94.7221 15.3142 94.8882 16.0279 94.8882 16.732V16.8557H89.398C89.398 16.7986 89.398 16.7511 89.3933 16.7035C89.3885 16.6559 89.379 16.6131 89.36 16.5655C89.2841 16.3276 89.1702 16.0802 89.0184 15.8185C88.8618 15.5616 88.6245 15.3427 88.3114 15.1619C87.9982 14.9811 87.5521 14.8907 86.9827 14.8907C86.4133 14.8907 85.9388 15.0192 85.5307 15.2761C85.1226 15.5331 84.8094 15.9042 84.5864 16.3942C84.3681 16.8795 84.2542 17.4695 84.2542 18.1594C84.2542 18.8493 84.3633 19.4297 84.5864 19.9531C84.8094 20.4765 85.1178 20.8856 85.5307 21.1806C85.9388 21.4756 86.4228 21.6231 86.9827 21.6231C87.5426 21.6231 87.9744 21.5422 88.3114 21.3757C88.6483 21.2092 88.8997 20.9808 89.0658 20.6906C89.2367 20.4003 89.3411 20.0721 89.3885 19.7057H94.8929C94.8929 20.4051 94.7269 21.1188 94.39 21.8515C94.053 22.5842 93.5595 23.2551 92.9047 23.8641C92.2499 24.4778 91.4289 24.9679 90.4467 25.3485C89.4644 25.7244 88.3303 25.9147 87.0349 25.9147L87.0302 25.9195Z" fill="#020810"></path><path d="M106.443 16.2753L112.123 25.5579H106.329L102.931 19.4535L101.996 20.3242V25.5579H96.7436V4H101.996V14.3531L105.669 10.9084H112.369L106.443 16.2753Z" fill="#020810"></path><path d="M118.97 25.9195C118.106 25.9195 117.257 25.8148 116.412 25.6102C115.568 25.4009 114.799 25.0916 114.106 24.6729C113.413 24.2542 112.858 23.7261 112.441 23.0933C112.023 22.4605 111.814 21.7135 111.814 20.8571V20.7191H117.304V20.8571C117.304 21.2425 117.471 21.5137 117.798 21.6707C118.13 21.8277 118.571 21.9038 119.131 21.9038C119.331 21.9038 119.568 21.88 119.834 21.8277C120.099 21.7754 120.332 21.6897 120.526 21.566C120.726 21.4423 120.821 21.2805 120.821 21.076C120.821 20.7715 120.612 20.5574 120.194 20.4336C119.777 20.3099 119.051 20.1672 118.016 20.0007C117.395 19.9008 116.73 19.7485 116.038 19.5534C115.34 19.3536 114.685 19.0824 114.068 18.7398C113.451 18.3973 112.953 17.9548 112.569 17.4219C112.184 16.889 111.99 16.2325 111.99 15.4474C111.99 14.3816 112.313 13.4872 112.958 12.7735C113.603 12.0551 114.462 11.5174 115.53 11.1511C116.597 10.7895 117.765 10.6039 119.032 10.6039C120.299 10.6039 121.362 10.8085 122.415 11.2177C123.469 11.6268 124.327 12.2073 124.987 12.9638C125.647 13.7155 125.979 14.61 125.979 15.6377V15.7757H120.545V15.6377C120.545 15.3808 120.465 15.1762 120.303 15.024C120.142 14.8717 119.943 14.7575 119.706 14.6862C119.468 14.6148 119.231 14.5767 118.989 14.5767C118.804 14.5767 118.586 14.5958 118.334 14.6386C118.083 14.6814 117.864 14.7575 117.679 14.867C117.494 14.9764 117.404 15.1381 117.404 15.3475C117.404 15.5331 117.523 15.6901 117.755 15.8185C117.988 15.947 118.31 16.0564 118.719 16.1421C119.127 16.2277 119.582 16.3086 120.085 16.3847C120.607 16.4561 121.215 16.5798 121.903 16.7415C122.591 16.9081 123.26 17.1555 123.91 17.479C124.56 17.8073 125.101 18.245 125.528 18.8017C125.955 19.3584 126.169 20.0673 126.169 20.9332C126.169 21.861 125.955 22.6413 125.528 23.2788C125.101 23.9164 124.531 24.4255 123.824 24.8109C123.113 25.1963 122.334 25.477 121.495 25.653C120.65 25.8291 119.805 25.9147 118.965 25.9147L118.97 25.9195Z" fill="#020810"></path><path d="M142.25 10.9084L137.462 25.9337C137.03 27.2754 136.499 28.3983 135.868 29.2975C135.232 30.1968 134.392 30.8724 133.343 31.3244C132.29 31.7764 130.914 32 129.21 32C128.683 32 128.223 31.9857 127.825 31.9524C127.426 31.9191 127.179 31.8858 127.075 31.8477V27.8226C127.193 27.8749 127.412 27.9178 127.72 27.9463C128.033 27.9749 128.38 27.9891 128.755 27.9891C129.13 27.9891 129.471 27.9178 129.799 27.7798C130.131 27.6418 130.42 27.442 130.672 27.1803C130.923 26.9186 131.118 26.5951 131.246 26.2097L131.369 25.8338L126.335 10.9084H132.11L134.387 21.1426L136.556 10.9084H142.25Z" fill="#020810"></path><path d="M19.4158 6.12676L9.6882 15.8756H9.19944C6.50891 15.8756 4.32138 13.6918 4.32138 11.0036C4.32138 8.31538 6.49942 6.13152 9.18521 6.13152H19.4111L19.4158 6.12676Z" fill="#F36D39"></path><path d="M0.25 25.5769L9.97765 15.828H10.4664C13.1569 15.828 15.3445 18.0119 15.3445 20.7001C15.3445 23.3883 13.1664 25.5721 10.4806 25.5721H0.25V25.5769Z" fill="#3C8BCA"></path></svg> 